<svg width="18" height="18" viewBox="0 0 18 18" fill="none" xmlns="http://www.w3.org/2000/svg">
<g clip-path="url(#clip0_13_26)">
<path d="M12.9375 7.75H12.375V4.9375C12.375 4.04239 12.0194 3.18395 11.3865 2.55101C10.7536 1.91808 9.89511 1.5625 9 1.5625C8.10489 1.5625 7.24645 1.91808 6.61351 2.55101C5.98058 3.18395 5.625 4.04239 5.625 4.9375V7.75H5.0625C4.46596 7.75065 3.89404 7.98791 3.47223 8.40973C3.05041 8.83154 2.81315 9.40346 2.8125 10V16.1875C2.81315 16.784 3.05041 17.356 3.47223 17.7778C3.89404 18.1996 4.46596 18.4368 5.0625 18.4375H12.9375C13.534 18.4368 14.106 18.1996 14.5278 17.7778C14.9496 17.356 15.1868 16.784 15.1875 16.1875V10C15.1868 9.40346 14.9496 8.83154 14.5278 8.40973C14.106 7.98791 13.534 7.75065 12.9375 7.75ZM11.25 7.75H6.75V4.9375C6.75 4.34076 6.98705 3.76847 7.40901 3.34651C7.83097 2.92455 8.40326 2.6875 9 2.6875C9.59674 2.6875 10.169 2.92455 10.591 3.34651C11.0129 3.76847 11.25 4.34076 11.25 4.9375V7.75Z" fill="black"/>
</g>
<defs>
<clipPath id="clip0_13_26">
<rect width="18" height="18" fill="white"/>
</clipPath>
</defs>
</svg>
